<svg xmlns="http://www.w3.org/2000/svg" baseProfile="full" version="1.1" width="435px" height="300px" style="fill: none; width: 435px; height: 300px;"><path d="M60,15 Q15,30 15,225 Q60,360 300,285 Q435,225 420,75 Q420,15 60,15 " style="stroke-width: 16; stroke-linecap: round; stroke-linejoin: round; stroke: rgb(85, 139, 139); fill: rgb(85, 139, 139);"/><path d="M210,150 Q405,135 375,150 Q240,225 210,150 M135,60 Q135,60 135,285 Q210,270 135,60 " style="stroke-width: 15; stroke-linecap: round; stroke-linejoin: round; stroke: rgb(255, 213, 194); fill: rgb(255, 213, 194);"/><path d="M45,60 L45,60 L90,60 L90,270 L45,240 L45,60 M210,60 L210,60 L210,105 L405,105 L375,60 L210,60 " style="stroke-width: 15; stroke-linecap: square; stroke-linejoin: round; stroke: rgb(255, 255, 255); fill: rgb(255, 255, 255);"/></svg>